<svg width="1024" height="1024" viewBox="0 0 1024 1024" fill="none" xmlns="http://www.w3.org/2000/svg">
<rect width="1024" height="1024" rx="512" fill="#3B6B9B"/>
<path d="M343.328 184.617C298.57 193.648 264.836 229.109 258.195 274.266C255.672 292.063 258.328 312.781 265.234 329.117L268.023 335.359L257.93 345.852C229.242 375.867 204.406 415.578 193.383 448.914C185.812 472.024 183.422 486.367 183.555 511.336C183.555 531.391 183.953 535.375 187.008 546.797C201.219 600.055 247.039 634.32 320.75 646.938C327.656 648.133 333.5 649.195 333.766 649.461C333.898 649.594 332.305 654.242 330.047 659.688C324.07 674.695 321.68 686.383 321.547 701.922C321.281 722.641 326.195 736.453 339.211 751.992C342.797 756.375 347.18 763.149 349.039 767.133C358.469 786.922 379.984 804.586 407.078 814.945C411.992 816.805 413.586 818.399 417.039 824.641C423.414 836.594 433.641 842.305 445.727 840.977C453.297 840.047 459.539 836.992 464.187 832.078L467.508 828.492L480.789 829.555C497.922 830.883 526.344 830.883 543.211 829.555L556.492 828.359L560.344 832.344C566.719 838.719 571.633 840.578 581.062 840.711C594.344 840.711 604.039 833.805 608.82 821.055C609.75 818.664 611.875 816.805 614.531 815.875C624.891 812.289 644.812 801.133 652.914 794.492C662.742 786.258 669.383 777.891 674.828 766.469C676.953 762.219 681.203 755.977 684.258 752.524C690.766 745.484 698.07 732.203 700.727 722.508C705.109 706.836 701.789 678.149 693.156 657.695C691.297 653.313 689.969 649.594 690.234 649.461C690.5 649.195 696.344 648.133 703.25 646.938C777.094 634.32 822.781 600.055 836.992 546.797C840.047 535.375 840.445 531.391 840.445 511.336C840.578 486.367 838.187 472.024 830.617 448.914C819.594 415.578 794.758 375.867 766.07 345.852L755.977 335.359L758.766 329.117C764.344 316.102 766.203 306.141 766.203 288.875C766.336 269.484 764.078 259.258 756.375 243.055C743.094 215.164 719.055 194.977 689.172 186.344C675.359 182.359 647.602 182.094 634.187 185.68C613.602 191.391 591.555 205.469 579.336 220.742L572.961 228.711L566.055 226.852C555.961 224.063 541.086 225.258 530.461 229.773C512.531 237.344 511.469 237.344 493.539 229.773C482.914 225.258 468.039 224.063 457.945 226.852L450.906 228.711L444.797 221.273C420.492 191.789 380.117 177.18 343.328 184.617ZM389.281 208.391C408.008 214.367 425.273 227.914 435.367 244.648C440.547 253.016 446.258 268.953 447.32 277.852L447.984 283.563H363.117H278.25L278.781 280.508C279.18 278.914 280.109 274.398 280.773 270.68C290.336 222.602 341.469 193.25 389.281 208.391ZM686.781 208.391C705.508 214.367 722.773 227.914 732.867 244.648C738.047 253.016 743.758 268.953 744.82 277.852L745.484 283.563H660.484C580.266 283.563 575.617 283.43 576.281 281.172C576.547 279.977 577.344 276.258 577.742 272.938C580 258.195 589.297 240.664 600.984 229.109C623.297 206.664 656.234 198.695 686.781 208.391ZM491.414 252.086C499.648 255.938 501.906 256.336 512.664 256.336C523.023 256.336 525.547 255.805 531.523 252.75C540.289 248.102 549.453 246.109 556.492 247.172L562.07 247.969L558.617 258.063C555.562 267.359 555.297 270.281 555.164 288.875C555.164 308.664 555.297 309.859 559.547 321.945C564.992 337.75 574.953 354.219 592.484 376.797C604.305 392.07 625.156 405.086 644.148 409.07C679.211 416.508 714.805 399.774 737.117 365.508C740.836 359.93 744.156 355.281 744.555 355.281C745.75 355.281 762.484 374.008 770.586 384.5C787.852 406.68 802.328 433.375 810.43 457.281C816.273 475.078 816.008 480.656 808.172 496.859C801.398 510.805 787.984 525.149 774.969 532.188C762.484 539.094 726.094 552.508 697.805 560.609C695.945 561.141 696.211 558.219 699.664 537.899C701.789 525.016 703.117 514.125 702.719 513.727C701.789 512.664 682.797 509.477 682.133 510.141C681.867 510.406 678.68 528.734 675.094 550.781C671.508 572.961 668.32 591.82 668.055 592.75C667.656 593.813 665.664 592.352 662.609 589.031C656.5 582.258 642.422 572.961 632.195 568.977C625.289 566.32 621.836 565.922 607.625 565.922C592.75 565.922 590.094 566.188 581.992 569.508C576.945 571.367 569.906 575.086 566.187 577.609C559.547 581.992 559.414 581.992 552.906 580.399C532.187 574.82 494.867 574.422 474.547 579.469L464.453 581.992L457.812 577.477C454.094 575.086 447.055 571.367 442.008 569.508C433.906 566.188 431.25 565.922 416.375 565.922C401.5 565.922 398.844 566.188 390.609 569.508C380.25 573.625 367.102 582.524 360.727 589.695C358.07 592.75 356.344 593.813 355.945 592.75C355.68 591.82 352.492 572.961 348.906 550.781C345.32 528.734 342.133 510.406 341.867 510.141C341.203 509.477 321.945 513.063 321.016 513.859C320.75 514.258 322.211 525.016 324.336 537.899C328.32 561.008 328.32 561.141 325.531 560.477C315.172 557.555 282.766 546.399 268.953 540.953C241.062 530.063 225.789 517.445 215.695 496.461C207.992 480.656 207.727 474.945 213.57 457.149C221.672 432.977 236.016 406.945 253.414 384.5C261.516 374.008 278.25 355.281 279.445 355.281C279.844 355.281 283.297 359.93 286.883 365.508C320.352 417.039 381.711 425.805 423.547 385.164C436.43 372.813 457.016 341.734 462.992 326.063C470.695 305.742 471.625 277.852 465.117 258.063L461.797 247.836L465.383 247.305C472.289 246.109 482.25 247.969 491.414 252.086ZM305.609 297.774C308.797 312.383 313.711 321.547 323.937 331.109C346.25 352.227 380.25 352.227 402.562 331.109C412.789 321.547 417.703 312.383 420.891 297.774L421.687 294.188H434.969C442.273 294.188 448.25 294.453 448.25 294.852C448.25 295.25 447.32 300.297 446.125 305.875C438.156 345.055 403.094 373.875 363.25 373.875C323.406 373.875 288.344 345.055 280.375 305.875C279.18 300.297 278.25 295.25 278.25 294.852C278.25 294.453 284.227 294.188 291.531 294.188H304.812L305.609 297.774ZM603.109 297.774C606.297 312.383 611.211 321.547 621.437 331.109C643.75 352.227 677.75 352.227 700.062 331.109C710.289 321.547 715.203 312.383 718.391 297.774L719.187 294.188H732.469C739.773 294.188 745.75 294.453 745.75 294.852C745.75 295.25 744.82 300.297 743.625 305.875C735.656 345.055 700.594 373.875 660.75 373.875C620.906 373.875 585.844 345.055 577.875 305.875C576.68 300.297 575.75 295.25 575.75 294.852C575.75 294.453 581.727 294.188 589.031 294.188H602.312L603.109 297.774ZM428.992 588.234C437.625 590.492 443.336 593.547 451.57 599.922C458.875 605.766 461 605.899 475.875 601.781C485.437 599.125 501.109 597 511.734 597C522.227 597 543.211 600.055 552.508 602.844C562.602 606.031 565.258 605.5 573.359 599.258C585.578 589.695 592.883 587.172 607.625 587.039C619.047 587.039 621.039 587.438 629.141 591.289C640.031 596.336 648.398 604.039 653.312 613.07C657.562 620.774 660.75 631.399 660.75 637.906C660.75 640.695 663.008 646.141 666.594 652.516C677.75 671.774 683.859 697.805 680.805 712.547C677.484 728.484 666.992 743.227 654.375 749.602C640.961 756.508 642.555 756.375 512 756.375C377.859 756.375 381.711 756.641 367.367 748.008C358.336 742.563 352.094 735.391 346.781 724.5C343.062 716.664 342.797 714.805 342.93 703.25C342.93 695.149 343.992 686.914 345.852 680.274C348.242 671.109 350.633 665.531 360.328 646.805C361.789 643.883 363.648 637.508 364.312 632.594C367.633 610.414 381.844 594.211 403.492 588.367C412.391 585.977 420.625 585.977 428.992 588.234ZM407.742 782.539C408.273 785.328 408.937 788.649 409.336 789.977C409.867 792.102 409.469 792.367 406.812 791.57C403.492 790.508 392.203 784 387.289 780.149C384.102 777.625 384.234 777.625 395.523 777.625H406.945L407.742 782.539ZM456.219 779.219C456.219 780.149 455.023 788.914 453.43 798.609C450.906 814.016 450.109 816.672 447.32 818.399C443.734 820.789 438.289 819.859 436.43 816.274C435.102 814.016 429.656 784.266 429.656 779.75C429.656 777.891 431.516 777.625 442.937 777.625C452.633 777.625 456.219 778.024 456.219 779.219ZM545.867 781.875C549.055 799.938 550.117 807.641 549.586 808.172C549.32 808.57 532.32 808.836 512 808.836C491.68 808.836 474.68 808.57 474.414 808.172C473.883 807.641 474.945 799.938 478.133 781.875L478.93 777.625H512H545.07L545.867 781.875ZM594.344 779.219C594.344 780.149 593.148 788.914 591.555 798.609C589.031 814.016 588.234 816.672 585.445 818.399C581.859 820.789 576.414 819.859 574.555 816.274C573.227 814.016 567.781 784.266 567.781 779.75C567.781 777.891 569.641 777.625 581.062 777.625C590.758 777.625 594.344 778.024 594.344 779.219ZM638.172 778.289C638.172 779.219 623.43 788.781 619.18 790.641C614.266 792.766 614 792.633 614.664 789.844C615.062 788.649 615.727 785.328 616.258 782.539L617.055 777.625H627.547C633.391 777.625 638.172 777.891 638.172 778.289Z" fill="#D3EBF3"/>
<path d="M481.453 418.367C459.008 421.422 433.906 428.328 416.641 436.031L411.062 438.555L415.711 447.984C418.234 453.297 420.891 457.547 421.555 457.547C422.219 457.547 427.531 455.688 433.242 453.43C459.406 442.938 488.492 438.156 520.5 439.352C545.336 440.281 561.008 443.203 583.719 451.039C592.086 453.961 600.055 456.75 601.25 457.148C603.109 457.68 604.57 455.82 608.289 448.117L612.938 438.555L607.492 436.164C571.102 419.828 521.695 412.922 481.453 418.367Z" fill="#D3EBF3"/>
<path d="M487.43 492.211C467.906 494.867 434.172 505.227 424.742 511.336L421.555 513.461L426.469 522.359C429.258 527.274 431.516 531.391 431.781 531.656C431.914 531.922 437.758 529.531 444.797 526.609C451.969 523.555 463.789 519.438 471.227 517.578C483.844 514.258 486.633 513.992 512.664 514.125C547.328 514.125 553.039 515.453 591.023 531.391C591.82 531.656 594.609 527.805 597.266 522.758C601.117 515.586 601.914 513.328 600.586 512.266C595.539 508.016 568.047 498.32 550.516 494.602C535.773 491.547 501.773 490.219 487.43 492.211Z" fill="#D3EBF3"/>
<path d="M404.422 615.859C391.273 622.898 386.094 638.836 392.734 651.453C399.773 664.602 415.711 669.781 428.328 663.141C441.477 656.102 446.656 640.164 440.016 627.547C432.977 614.398 417.039 609.219 404.422 615.859Z" fill="#D3EBF3"/>
<path d="M595.672 615.859C582.523 622.898 577.344 638.836 583.984 651.453C591.023 664.602 606.961 669.781 619.578 663.141C632.727 656.102 637.906 640.164 631.266 627.547C624.227 614.398 608.289 609.219 595.672 615.859Z" fill="#D3EBF3"/>
</svg>
